<?xml version="1.0" standalone="no"?>
<!DOCTYPE svg PUBLIC "-//W3C//DTD SVG 20010904//EN"
 "http://www.w3.org/TR/2001/REC-SVG-20010904/DTD/svg10.dtd">
<svg version="1.0" xmlns="http://www.w3.org/2000/svg"
 width="32.000000pt" height="32.000000pt" viewBox="0 0 32.000000 32.000000"
 preserveAspectRatio="xMidYMid meet">

<g transform="translate(0.000000,32.000000) scale(0.100000,-0.100000)"
fill="#000000" stroke="none">
<path d="M1 293 c1 -23 2 -24 6 -6 2 13 13 24 26 26 18 4 17 5 -5 6 -24 1 -28
-3 -27 -26z"/>
<path d="M287 313 c13 -2 24 -13 26 -26 4 -18 5 -17 6 6 1 23 -3 27 -26 26
-23 -1 -24 -2 -6 -6z"/>
<path d="M91 296 c-35 -19 -50 -54 -51 -113 0 -45 -3 -52 -23 -56 -12 -2 52
-4 143 -4 91 0 155 2 143 4 -20 4 -23 11 -23 53 0 61 -16 97 -51 116 -35 17
-106 18 -138 0z m123 -6 c31 -11 56 -58 56 -102 0 -32 0 -32 -16 -10 -11 16
-25 22 -50 22 -24 0 -43 8 -60 25 -28 28 -34 30 -34 14 0 -6 -13 -24 -30 -39
l-30 -28 0 26 c1 78 83 123 164 92z m-12 -100 c31 0 38 -4 38 -20 0 -10 8 -24
18 -29 14 -9 13 -10 -10 -11 -16 0 -28 5 -28 10 0 6 -7 10 -15 10 -8 0 -15 -4
-15 -10 0 -5 -13 -10 -30 -10 -16 0 -30 5 -30 10 0 6 -7 10 -15 10 -8 0 -15
-4 -15 -10 0 -5 -12 -10 -27 -10 -24 1 -25 2 -10 11 9 5 17 18 17 28 0 10 10
25 23 34 19 12 25 13 42 1 11 -8 36 -14 57 -14z"/>
<path d="M75 71 c29 -58 87 -77 133 -45 26 18 58 74 42 74 -5 0 -10 -4 -10 -9
0 -5 -12 -23 -26 -40 -18 -21 -35 -31 -54 -31 -19 0 -36 10 -54 31 -14 17 -26
35 -26 40 0 5 -5 9 -10 9 -6 0 -4 -13 5 -29z"/>
<path d="M1 28 c-1 -24 3 -28 27 -27 22 1 23 2 5 6 -13 2 -24 13 -26 26 -4 18
-5 17 -6 -5z"/>
<path d="M310 31 c0 -12 -8 -21 -22 -24 -20 -4 -19 -4 5 -6 23 -1 27 3 27 24
0 14 -2 25 -5 25 -3 0 -5 -9 -5 -19z"/>
</g>
</svg>
